<svg width="152" height="45" fill="none" xmlns="http://www.w3.org/2000/svg"><g clip-path="url(#a)"><mask id="b" style="mask-type:luminance" maskUnits="userSpaceOnUse" x="0" y="0" width="152" height="45"><path d="M152 0H0v45h152V0z" fill="#fff"/></mask><g mask="url(#b)"><mask id="c" style="mask-type:luminance" maskUnits="userSpaceOnUse" x="0" y="0" width="152" height="45"><path d="M152 0H0v45h152V0z" fill="#fff"/></mask><g mask="url(#c)"><path d="M146.369 45H5.631C2.534 45 0 42.468 0 39.374V5.626C0 2.532 2.534 0 5.63 0h140.742c3.096 0 5.63 2.532 5.63 5.626v33.75c0 3.094-2.534 5.626-5.63 5.626" fill="#fff"/><path d="M146.369.9c2.608 0 4.73 2.121 4.73 4.726v33.75a4.734 4.734 0 0 1-4.73 4.726H5.631A4.734 4.734 0 0 1 .9 39.377V5.626A4.73 4.73 0 0 1 5.631.9h140.741-.003zm0-.9H5.631C2.534 0 0 2.532 0 5.626v33.75c0 3.094 2.534 5.626 5.63 5.626h140.742c3.096 0 5.63-2.532 5.63-5.626V5.627C152 2.532 149.466 0 146.369 0z" fill="#000"/><path d="m47 34.856 6.186-14.377h2.513l6.206 14.377h-2.67l-5.323-12.96h1.022l-5.303 12.96H47zm2.847-3.327.688-2.095h7.423l.687 2.095h-8.798zM69.368 23.765c.837 0 1.584.171 2.238.514.668.342 1.192.87 1.571 1.581.38.698.57 1.602.57 2.711v6.285h-2.455V28.9c0-.972-.222-1.698-.668-2.177-.432-.48-1.04-.72-1.826-.72-.576 0-1.087.124-1.532.37a2.53 2.53 0 0 0-1.04 1.11c-.236.479-.354 1.088-.354 1.828v5.545h-2.455V23.888h2.337v2.958l-.412-.904a3.75 3.75 0 0 1 1.59-1.602c.707-.383 1.52-.575 2.436-.575zM81.318 35c-1.008 0-1.918-.233-2.73-.698a5.133 5.133 0 0 1-1.885-1.972c-.458-.835-.687-1.821-.687-2.958 0-1.136.229-2.122.687-2.957a4.985 4.985 0 0 1 1.885-1.952c.812-.465 1.722-.698 2.73-.698.877 0 1.663.206 2.356.616.694.397 1.244 1.007 1.65 1.828.406.822.609 1.876.609 3.163 0 1.274-.197 2.328-.59 3.163-.392.822-.936 1.438-1.63 1.849-.693.41-1.492.616-2.395.616zm.294-2.198c.59 0 1.113-.137 1.571-.41.472-.274.845-.671 1.12-1.192.288-.52.432-1.13.432-1.828 0-.712-.144-1.321-.432-1.828a2.914 2.914 0 0 0-1.12-1.191c-.458-.274-.981-.41-1.57-.41-.59 0-1.12.136-1.591.41-.458.274-.832.671-1.12 1.191-.275.507-.412 1.116-.412 1.828 0 .699.138 1.308.413 1.828.287.52.66.918 1.119 1.192.471.273 1.001.41 1.59.41zm3.182 2.054v-2.588l.098-2.916-.197-2.917v-6.819h2.436v15.24h-2.337zM90.361 34.856V23.888h2.337v3.02l-.275-.884c.314-.739.805-1.3 1.473-1.684.68-.383 1.525-.575 2.533-.575v2.444a1.172 1.172 0 0 0-.294-.04 1.857 1.857 0 0 0-.275-.021c-.93 0-1.67.287-2.22.862-.549.562-.824 1.404-.824 2.527v5.32h-2.455zM103.129 35c-1.074 0-2.029-.24-2.867-.719a5.398 5.398 0 0 1-1.984-2.013c-.484-.849-.726-1.814-.726-2.896 0-1.095.242-2.06.726-2.896a5.245 5.245 0 0 1 1.984-1.992c.838-.48 1.793-.719 2.867-.719 1.086 0 2.049.24 2.887.719a5.113 5.113 0 0 1 1.983 1.972c.484.835.726 1.807.726 2.916 0 1.082-.242 2.047-.726 2.896a5.217 5.217 0 0 1-1.983 2.013c-.838.48-1.801.719-2.887.719zm0-2.198c.602 0 1.139-.137 1.61-.41.471-.274.838-.671 1.1-1.192.275-.52.412-1.13.412-1.828 0-.712-.137-1.321-.412-1.828a2.792 2.792 0 0 0-1.1-1.191 3.106 3.106 0 0 0-1.591-.41c-.602 0-1.139.136-1.61.41-.458.274-.825.671-1.1 1.191-.274.507-.412 1.116-.412 1.828 0 .699.138 1.308.412 1.828.275.52.642.918 1.1 1.192.471.273 1.002.41 1.591.41zM111.073 34.856V23.888h2.454v10.968h-2.454zm1.237-12.775c-.458 0-.838-.15-1.139-.452a1.519 1.519 0 0 1-.432-1.089c0-.438.144-.8.432-1.088.301-.301.681-.452 1.139-.452.458 0 .831.144 1.119.431.301.274.452.623.452 1.048 0 .452-.144.835-.432 1.15-.288.301-.668.452-1.139.452zM121.187 35c-1.008 0-1.918-.233-2.729-.698a5.129 5.129 0 0 1-1.885-1.972c-.459-.835-.688-1.821-.688-2.958 0-1.136.229-2.122.688-2.957a4.98 4.98 0 0 1 1.885-1.952c.811-.465 1.721-.698 2.729-.698.877 0 1.663.206 2.357.616.694.397 1.244 1.007 1.649 1.828.406.822.609 1.876.609 3.163 0 1.274-.196 2.328-.589 3.163-.393.822-.936 1.438-1.63 1.849-.694.41-1.492.616-2.396.616zm.295-2.198c.589 0 1.113-.137 1.571-.41.471-.274.844-.671 1.119-1.192.288-.52.432-1.13.432-1.828 0-.712-.144-1.321-.432-1.828a2.915 2.915 0 0 0-1.119-1.191c-.458-.274-.982-.41-1.571-.41s-1.119.136-1.591.41c-.458.274-.831.671-1.119 1.191-.275.507-.412 1.116-.412 1.828 0 .699.137 1.308.412 1.828.288.52.661.918 1.119 1.192a3.11 3.11 0 0 0 1.591.41zm3.181 2.054v-2.588l.098-2.916-.196-2.917v-6.819H127v15.24h-2.337z" fill="#000"/><g clip-path="url(#d)"><path d="M15.288 8.07a.555.555 0 0 0-.22.76l3.093 5.494c.152.27.498.367.772.217a.555.555 0 0 0 .222-.76L16.06 8.288a.573.573 0 0 0-.772-.218zM30.902 17.213c-1.158 0-2.098.925-2.098 2.064v7.313c0 1.14.94 2.065 2.098 2.065S33 27.73 33 26.59v-7.313c0-1.14-.94-2.064-2.098-2.064zM23.472 25.559c-1.158 0-2.098.924-2.098 2.064v7.313c0 1.14.94 2.065 2.098 2.065s2.098-.925 2.098-2.065v-7.313c0-1.14-.94-2.064-2.098-2.064zM25.712 8.07c.274.15.373.49.22.761l-3.093 5.493a.573.573 0 0 1-.772.218.555.555 0 0 1-.222-.76l3.095-5.494a.573.573 0 0 1 .772-.217zM10.098 17.213c1.158 0 2.098.925 2.098 2.065v7.312c0 1.14-.94 2.065-2.098 2.065S8 27.73 8 26.59v-7.312c0-1.14.94-2.065 2.098-2.065zM17.528 25.559c1.158 0 2.098.925 2.098 2.065v7.312c0 1.14-.94 2.065-2.098 2.065s-2.098-.925-2.098-2.065v-7.312c0-1.14.94-2.065 2.098-2.065z" fill="#A4C639"/><path d="M20.5 9.986c-4.393 0-7.955 3.236-7.955 7.227h15.91c0-3.99-3.562-7.227-7.955-7.227zM12.545 17.834v11.339c0 1.045.861 1.893 1.924 1.893H26.53c1.063 0 1.924-.848 1.924-1.893V17.834h-15.91z" fill="#A4C639"/><path d="M16.829 14.03c.193 0 .35-.154.35-.344a.347.347 0 0 0-.35-.344.347.347 0 0 0-.35.344c0 .19.157.344.35.344z" fill="#fff"/><path d="M16.829 14.339a.66.66 0 0 1-.665-.654.66.66 0 0 1 .665-.654.66.66 0 0 1 .664.654.66.66 0 0 1-.664.654zm0-.688a.035.035 0 0 0-.035.034c0 .019.015.034.035.034.019 0 .035-.015.035-.034a.035.035 0 0 0-.035-.034zM24.171 14.03c.193 0 .35-.154.35-.344a.347.347 0 0 0-.35-.344.347.347 0 0 0-.35.344c0 .19.157.344.35.344z" fill="#fff"/><path d="M24.171 14.339a.66.66 0 0 1-.664-.654.66.66 0 0 1 .664-.654.66.66 0 0 1 .665.654.66.66 0 0 1-.665.654zm0-.688a.035.035 0 0 0-.035.034c0 .019.016.034.035.034.02 0 .035-.015.035-.034a.035.035 0 0 0-.035-.034z" fill="#fff"/></g></g><path d="M46.722 16.656v-5.234h2.287c.569 0 1.067.11 1.496.33.428.219.762.523 1.001.912.24.388.36.847.36 1.375 0 .523-.12.982-.36 1.376-.239.389-.573.693-1.001.912-.429.22-.927.329-1.496.329h-2.287zm.972-.823h1.27c.394 0 .733-.074 1.017-.224.29-.15.511-.359.666-.628.16-.27.239-.583.239-.942 0-.364-.08-.678-.24-.942a1.589 1.589 0 0 0-.665-.628c-.284-.15-.623-.224-1.017-.224h-1.27v3.588zM53.795 13.598h2.602v.8h-2.602v-.8zm.075 2.243h2.953v.815h-3.925v-5.234h3.82v.815H53.87v3.604zM59.53 16.73c-.41 0-.8-.057-1.175-.171-.373-.12-.67-.272-.89-.457l.337-.755c.21.165.469.302.778.412.309.11.625.164.95.164.273 0 .495-.03.664-.09a.81.81 0 0 0 .374-.239.566.566 0 0 0 .12-.351.469.469 0 0 0-.172-.382 1.19 1.19 0 0 0-.449-.231 6.153 6.153 0 0 0-.605-.165c-.22-.05-.441-.107-.666-.172a3.172 3.172 0 0 1-.605-.261 1.357 1.357 0 0 1-.441-.434c-.115-.18-.172-.409-.172-.688 0-.284.075-.543.224-.777.155-.24.386-.429.695-.568.314-.145.71-.217 1.19-.217.313 0 .625.04.934.12.309.079.578.194.807.343l-.306.755a2.775 2.775 0 0 0-.726-.306 2.659 2.659 0 0 0-.717-.105c-.27 0-.489.033-.658.097a.827.827 0 0 0-.367.255.602.602 0 0 0-.112.358c0 .16.055.29.165.39.114.094.261.168.44.223.185.055.39.11.614.165.224.05.446.107.665.172.224.065.426.15.606.254.184.105.331.247.44.426.115.18.173.406.173.68 0 .28-.077.539-.232.778-.15.234-.381.424-.695.568-.314.14-.71.21-1.189.21zM65.03 16.73c-.398 0-.77-.064-1.113-.194a2.78 2.78 0 0 1-.89-.56 2.628 2.628 0 0 1-.583-.86 2.728 2.728 0 0 1-.21-1.077c0-.389.07-.748.21-1.076a2.62 2.62 0 0 1 1.48-1.413c.34-.135.71-.202 1.114-.202.429 0 .82.074 1.174.224.354.145.653.361.897.65l-.628.591a1.854 1.854 0 0 0-.635-.456 1.85 1.85 0 0 0-.763-.157c-.274 0-.526.045-.755.135-.224.09-.421.216-.59.38a1.812 1.812 0 0 0-.39.584c-.089.224-.134.47-.134.74s.045.516.135.74c.094.225.224.419.389.583a1.8 1.8 0 0 0 .59.382c.23.09.481.134.755.134s.529-.05.763-.15c.234-.104.446-.261.635-.47l.628.598c-.244.284-.543.5-.897.65-.354.15-.748.224-1.181.224zM67.19 16.656l2.356-5.234h.957l2.362 5.234H71.85l-2.027-4.718h.39l-2.02 4.718h-1.001zm1.085-1.211.261-.763h2.826l.262.763h-3.35zM73.53 16.656v-5.234h2.154c.463 0 .86.075 1.189.225.334.15.59.364.77.643.18.279.269.61.269.994s-.09.715-.27.994c-.179.274-.435.486-.77.636-.328.144-.725.217-1.188.217h-1.615l.434-.441v1.966h-.972zm3.425 0-1.323-1.9h1.039l1.33 1.9h-1.046zm-2.452-1.862-.434-.463h1.57c.429 0 .75-.093.965-.277.219-.184.329-.441.329-.77 0-.334-.11-.59-.33-.77-.214-.18-.535-.27-.964-.27h-1.57l.434-.478v3.028zM81.444 16.73c-.409 0-.785-.064-1.129-.194a2.78 2.78 0 0 1-.89-.56 2.571 2.571 0 0 1-.59-.86 2.728 2.728 0 0 1-.21-1.077c0-.389.07-.748.21-1.076.14-.33.336-.613.59-.853.26-.244.561-.43.905-.56.344-.135.72-.202 1.129-.202.444 0 .842.072 1.196.216.359.145.66.357.905.636l-.613.598a1.964 1.964 0 0 0-.666-.448c-.234-.1-.493-.15-.777-.15-.274 0-.529.045-.763.135-.234.09-.436.216-.605.38-.17.165-.302.36-.397.584-.09.224-.134.47-.134.74 0 .264.045.508.134.733.095.224.227.42.397.59.17.165.368.292.598.382.229.09.483.134.762.134.26 0 .509-.04.748-.12.244-.084.476-.224.695-.418l.553.725c-.274.22-.593.386-.957.501-.358.11-.722.165-1.091.165zm1.129-.792v-1.959h.92v2.086l-.92-.127zM84.034 16.656l2.355-5.234h.957l2.363 5.234h-1.017l-2.026-4.718h.389l-2.019 4.718h-1.002zm1.084-1.211.262-.763h2.826l.261.763h-3.349zM90.374 16.656v-5.234h2.153c.464 0 .86.075 1.189.225.334.15.59.364.77.643.18.279.27.61.27.994s-.09.715-.27.994c-.18.274-.436.486-.77.636-.329.144-.725.217-1.189.217h-1.615l.434-.441v1.966h-.972zm3.424 0-1.323-1.9h1.04l1.33 1.9h-1.047zm-2.452-1.862-.434-.463h1.57c.429 0 .75-.093.965-.277.22-.184.329-.441.329-.77 0-.334-.11-.59-.33-.77-.213-.18-.535-.27-.964-.27h-1.57l.434-.478v3.028zM97.909 16.656v-5.234h2.153c.463 0 .86.075 1.189.225.334.15.59.364.77.643.179.279.269.61.269.994s-.09.715-.269.994a1.73 1.73 0 0 1-.77.643c-.329.15-.726.225-1.189.225h-1.615l.434-.457v1.967h-.972zm.972-1.862-.434-.47h1.57c.429 0 .75-.09.964-.27.22-.184.329-.441.329-.77 0-.334-.109-.59-.329-.77-.214-.18-.535-.27-.964-.27h-1.57l.434-.478v3.028zM102.257 16.656l2.355-5.234h.957l2.363 5.234h-1.017l-2.026-4.718h.389l-2.019 4.718h-1.002zm1.084-1.211.262-.763h2.826l.262.763h-3.35zM108.597 16.656v-5.234h2.153c.464 0 .86.075 1.189.225.334.15.591.364.77.643.18.279.269.61.269.994s-.089.715-.269.994a1.741 1.741 0 0 1-.77.636c-.329.144-.725.217-1.189.217h-1.614l.433-.441v1.966h-.972zm3.424 0-1.323-1.9h1.039l1.331 1.9h-1.047zm-2.452-1.862-.433-.463h1.57c.428 0 .75-.093.964-.277.219-.184.329-.441.329-.77 0-.334-.11-.59-.329-.77-.214-.18-.536-.27-.964-.27h-1.57l.433-.478v3.028zM113.326 16.656l2.355-5.234h.957L119 16.656h-1.017l-2.026-4.718h.389l-2.019 4.718h-1.001zm1.084-1.211.261-.763h2.826l.262.763h-3.349z" fill="#000"/></g></g><defs><clipPath id="a"><path fill="#fff" d="M0 0h152v45H0z"/></clipPath><clipPath id="d"><path fill="#fff" transform="translate(8 8)" d="M0 0h25v29H0z"/></clipPath></defs></svg>