<svg width="150" height="50" fill="none" xmlns="http://www.w3.org/2000/svg"><g clip-path="url(#a)"><path d="M137.668 0H11.918c-.458 0-.91 0-1.368.003-.383.002-.762.01-1.149.016-.84.01-1.676.083-2.505.22a8.331 8.331 0 0 0-2.376.784 8.047 8.047 0 0 0-3.496 3.5 8.252 8.252 0 0 0-.781 2.379c-.14.827-.214 1.664-.224 2.503-.012.383-.013.767-.019 1.15v28.893c.006.389.007.764.019 1.153.01.838.085 1.675.224 2.502.137.829.4 1.632.781 2.38a7.76 7.76 0 0 0 1.473 2.018 7.844 7.844 0 0 0 2.023 1.474c.748.38 1.55.646 2.376.788.829.136 1.666.21 2.505.221.387.009.766.014 1.149.014.457.002.91.002 1.368.002h125.75c.45 0 .906 0 1.355-.002.381 0 .772-.005 1.153-.014.838-.01 1.673-.084 2.5-.22a8.506 8.506 0 0 0 2.385-.79 7.859 7.859 0 0 0 2.022-1.473 8.01 8.01 0 0 0 1.477-2.017c.377-.75.638-1.553.773-2.38.14-.828.217-1.664.232-2.503.005-.389.005-.764.005-1.153.01-.454.01-.905.01-1.367v-26.16c0-.458 0-.912-.01-1.365 0-.384 0-.768-.005-1.152a16.796 16.796 0 0 0-.232-2.502 8.247 8.247 0 0 0-.773-2.38 8.088 8.088 0 0 0-3.499-3.499 8.468 8.468 0 0 0-2.385-.784 16.309 16.309 0 0 0-2.5-.22c-.381-.007-.772-.014-1.153-.017C138.574 0 138.118 0 137.668 0z" fill="#000"/><path d="M10.556 48.906c-.38 0-.752-.005-1.13-.013a15.863 15.863 0 0 1-2.337-.204 7.354 7.354 0 0 1-2.07-.685 6.758 6.758 0 0 1-1.747-1.27 6.652 6.652 0 0 1-1.276-1.746 7.153 7.153 0 0 1-.678-2.072 15.518 15.518 0 0 1-.208-2.343c-.008-.264-.019-1.142-.019-1.142V10.555s.011-.864.019-1.118c.01-.784.078-1.566.207-2.34.119-.723.348-1.424.679-2.077a6.717 6.717 0 0 1 1.269-1.748 6.957 6.957 0 0 1 1.753-1.278 7.279 7.279 0 0 1 2.066-.68A15.734 15.734 0 0 1 9.43 1.11l1.128-.015h128.46l1.142.016c.778.009 1.555.077 2.323.203.726.123 1.43.354 2.088.685a6.99 6.99 0 0 1 3.019 3.025 7.2 7.2 0 0 1 .669 2.06c.13.78.202 1.57.217 2.36.004.354.004.734.004 1.112.01.47.01.915.01 1.365v26.161c0 .454 0 .897-.01 1.344 0 .407 0 .779-.005 1.162-.014.777-.086 1.551-.214 2.317a7.146 7.146 0 0 1-.675 2.087 6.827 6.827 0 0 1-1.269 1.733 6.77 6.77 0 0 1-1.749 1.278 7.341 7.341 0 0 1-2.085.687c-.773.126-1.554.194-2.337.204-.366.008-.749.013-1.122.013l-1.354.003-127.113-.003z" fill="#fff"/><path d="M31.246 24.862a6.433 6.433 0 0 1 3.063-5.397 6.585 6.585 0 0 0-5.188-2.805c-2.183-.23-4.299 1.306-5.411 1.306-1.134 0-2.847-1.284-4.69-1.245a6.909 6.909 0 0 0-5.815 3.545c-2.514 4.353-.639 10.75 1.77 14.268 1.204 1.723 2.612 3.647 4.455 3.579 1.803-.075 2.476-1.15 4.653-1.15 2.156 0 2.788 1.15 4.668 1.106 1.934-.031 3.153-1.73 4.316-3.47a14.252 14.252 0 0 0 1.974-4.019 6.216 6.216 0 0 1-3.795-5.718zM27.695 14.346a6.333 6.333 0 0 0 1.449-4.537c-1.612.169-3.1.94-4.17 2.157a6.027 6.027 0 0 0-1.486 4.37 5.328 5.328 0 0 0 4.207-1.99zM52.877 33.925H46.96l-1.42 4.195h-2.507l5.605-15.522h2.603l5.605 15.522h-2.55l-1.419-4.195zm-5.304-1.937h4.69l-2.312-6.809h-.065l-2.313 6.81zM68.949 32.462c0 3.517-1.882 5.776-4.723 5.776a3.836 3.836 0 0 1-3.56-1.98h-.054v5.606h-2.323V26.803h2.248v1.882h.043a4.015 4.015 0 0 1 3.603-2c2.873 0 4.766 2.27 4.766 5.777zm-2.388 0c0-2.291-1.184-3.798-2.99-3.798-1.775 0-2.97 1.538-2.97 3.798 0 2.28 1.195 3.807 2.97 3.807 1.806 0 2.99-1.495 2.99-3.807zM81.406 32.462c0 3.517-1.883 5.776-4.724 5.776a3.836 3.836 0 0 1-3.56-1.98h-.054v5.606h-2.323V26.803h2.248v1.882h.043a4.014 4.014 0 0 1 3.603-2c2.873 0 4.767 2.27 4.767 5.777zm-2.389 0c0-2.291-1.184-3.798-2.99-3.798-1.775 0-2.97 1.538-2.97 3.798 0 2.28 1.195 3.807 2.97 3.807 1.806 0 2.99-1.495 2.99-3.807zM89.637 33.795c.172 1.54 1.667 2.55 3.71 2.55 1.959 0 3.367-1.01 3.367-2.399 0-1.204-.85-1.926-2.86-2.42l-2.013-.485c-2.85-.688-4.173-2.021-4.173-4.184 0-2.679 2.334-4.518 5.647-4.518 3.281 0 5.53 1.84 5.605 4.518h-2.345c-.14-1.55-1.42-2.485-3.292-2.485-1.871 0-3.152.947-3.152 2.323 0 1.098.818 1.744 2.819 2.238l1.71.42c3.185.753 4.507 2.032 4.507 4.303 0 2.904-2.312 4.723-5.992 4.723-3.442 0-5.766-1.776-5.916-4.584h2.378zM104.183 24.125v2.678h2.152v1.84h-2.152v6.239c0 .969.431 1.42 1.377 1.42.255-.004.51-.022.764-.053v1.828a6.39 6.39 0 0 1-1.291.108c-2.291 0-3.184-.86-3.184-3.056v-6.486h-1.646v-1.84h1.646v-2.678h2.334zM107.58 32.462c0-3.56 2.097-5.798 5.368-5.798 3.281 0 5.368 2.237 5.368 5.798 0 3.57-2.076 5.798-5.368 5.798-3.292 0-5.368-2.227-5.368-5.798zm8.369 0c0-2.443-1.119-3.884-3.001-3.884-1.883 0-3.002 1.453-3.002 3.884 0 2.452 1.119 3.883 3.002 3.883 1.882 0 3.001-1.43 3.001-3.883zM120.231 26.803h2.216v1.926h.054a2.697 2.697 0 0 1 2.722-2.045c.267 0 .534.029.796.087v2.173a3.25 3.25 0 0 0-1.044-.14 2.337 2.337 0 0 0-2.319 1.607c-.105.32-.14.66-.102.996v6.713h-2.323V26.803zM136.729 34.796c-.312 2.054-2.313 3.464-4.873 3.464-3.292 0-5.335-2.205-5.335-5.744 0-3.55 2.054-5.852 5.238-5.852 3.131 0 5.1 2.15 5.1 5.582v.796h-7.994v.14a2.951 2.951 0 0 0 3.045 3.206 2.562 2.562 0 0 0 2.613-1.592h2.206zm-7.853-3.378h5.658a2.72 2.72 0 0 0-2.775-2.872 2.865 2.865 0 0 0-2.883 2.872zM47.283 10.914a3.3 3.3 0 0 1 3.51 3.706c0 2.383-1.289 3.752-3.51 3.752h-2.694v-7.458h2.694zm-1.536 6.403h1.406a2.346 2.346 0 0 0 2.46-2.682 2.35 2.35 0 0 0-2.46-2.667h-1.406v5.35zM57.14 16.852a2.285 2.285 0 0 1-2.44 1.629 2.557 2.557 0 0 1-2.6-2.906 2.596 2.596 0 0 1 2.596-2.94c1.566 0 2.511 1.07 2.511 2.837v.388h-3.975v.062a1.487 1.487 0 0 0 1.5 1.613 1.349 1.349 0 0 0 1.339-.683h1.069zm-3.908-1.814h2.843a1.358 1.358 0 0 0-1.385-1.458 1.44 1.44 0 0 0-1.458 1.458zM60.756 12.635c1.266 0 2.093.589 2.202 1.581h-1.066c-.102-.413-.507-.677-1.136-.677-.62 0-1.092.295-1.092.734 0 .336.285.548.895.688l.935.217c1.07.248 1.572.708 1.572 1.535 0 1.06-.987 1.768-2.331 1.768-1.34 0-2.212-.605-2.31-1.602h1.111a1.143 1.143 0 0 0 1.224.702c.693 0 1.185-.31 1.185-.76 0-.335-.264-.553-.828-.687l-.981-.228c-1.071-.253-1.567-.733-1.567-1.57 0-.999.915-1.701 2.187-1.701zM68.248 14.583a1.257 1.257 0 0 0-1.329-.956c-.93 0-1.499.713-1.499 1.913 0 1.22.574 1.948 1.499 1.948a1.223 1.223 0 0 0 1.33-.925h1.08a2.203 2.203 0 0 1-2.404 1.918 2.585 2.585 0 0 1-2.641-2.941 2.568 2.568 0 0 1 2.635-2.905 2.222 2.222 0 0 1 2.41 1.948h-1.08zM70.43 16.78c0-1.013.755-1.597 2.094-1.68l1.525-.088v-.486c0-.594-.393-.93-1.152-.93-.62 0-1.05.228-1.173.626h-1.076c.114-.967 1.023-1.587 2.3-1.587 1.411 0 2.207.702 2.207 1.891v3.846h-1.07v-.79h-.087a1.894 1.894 0 0 1-1.69.883 1.7 1.7 0 0 1-1.877-1.685zm3.62-.48v-.471l-1.375.088c-.776.052-1.127.315-1.127.812 0 .506.44.8 1.044.8a1.327 1.327 0 0 0 1.457-1.23zm-1.769-4.498 1.298-1.778h1.303l-1.453 1.778H72.28zM76.894 12.744h1.07v.863h.083a1.527 1.527 0 0 1 1.52-.957 2.33 2.33 0 0 1 .495.047v1.096a3.05 3.05 0 0 0-.62-.067 1.319 1.319 0 0 0-1.437 1.323v3.323h-1.11v-5.628zM81.083 18.936h1.137c.094.408.564.672 1.313.672.926 0 1.474-.44 1.474-1.184v-1.08h-.083a1.893 1.893 0 0 1-1.737.945c-1.437 0-2.326-1.11-2.326-2.796 0-1.716.899-2.843 2.337-2.843a1.951 1.951 0 0 1 1.767.992h.088v-.899h1.065v5.676c0 1.287-1.009 2.103-2.6 2.103-1.407 0-2.317-.63-2.435-1.586zm3.944-3.448c0-1.122-.58-1.84-1.525-1.84-.956 0-1.493.718-1.493 1.84s.537 1.84 1.493 1.84c.952 0 1.525-.713 1.525-1.84zM87.566 16.78c0-1.013.755-1.597 2.094-1.68l1.525-.088v-.486c0-.594-.394-.93-1.153-.93-.62 0-1.05.228-1.173.626h-1.075c.113-.967 1.023-1.587 2.3-1.587 1.41 0 2.206.702 2.206 1.891v3.846h-1.069v-.79h-.088a1.894 1.894 0 0 1-1.69.883 1.7 1.7 0 0 1-1.877-1.685zm3.619-.48v-.471l-1.375.088c-.775.052-1.127.315-1.127.812 0 .506.44.8 1.044.8a1.327 1.327 0 0 0 1.458-1.23zM94.082 10.546h1.11v7.826h-1.11v-7.826zM96.736 15.556a2.666 2.666 0 1 1 5.309 0 2.667 2.667 0 1 1-5.309 0zm4.167 0c0-1.22-.548-1.934-1.51-1.934-.966 0-1.51.713-1.51 1.934 0 1.23.544 1.937 1.51 1.937.962 0 1.51-.712 1.51-1.937zM111.35 16.852a2.285 2.285 0 0 1-2.439 1.629 2.554 2.554 0 0 1-2.6-2.906 2.588 2.588 0 0 1 .626-2.062 2.593 2.593 0 0 1 1.969-.878c1.566 0 2.511 1.07 2.511 2.837v.388h-3.975v.062a1.495 1.495 0 0 0 .896 1.492c.19.082.396.123.603.12a1.347 1.347 0 0 0 1.339-.682h1.07zm-3.908-1.814h2.843a1.356 1.356 0 0 0-1.385-1.458 1.439 1.439 0 0 0-1.458 1.458zM112.908 12.744h1.07v.894h.083a1.686 1.686 0 0 1 1.679-1.003 1.831 1.831 0 0 1 1.949 2.093v3.644h-1.111v-3.365c0-.904-.393-1.354-1.215-1.354a1.292 1.292 0 0 0-1.344 1.426v3.293h-1.111v-5.628zM127.22 16.852a2.285 2.285 0 0 1-2.439 1.629 2.557 2.557 0 0 1-2.6-2.906 2.588 2.588 0 0 1 .626-2.062 2.598 2.598 0 0 1 1.969-.878c1.566 0 2.511 1.07 2.511 2.837v.388h-3.975v.062a1.489 1.489 0 0 0 1.499 1.613 1.352 1.352 0 0 0 1.34-.683h1.069zm-3.908-1.814h2.843a1.353 1.353 0 0 0-.833-1.354 1.355 1.355 0 0 0-.552-.104 1.442 1.442 0 0 0-1.458 1.458zM128.83 10.546h1.111v7.826h-1.111v-7.826z" fill="#000"/></g><defs><clipPath id="a"><path fill="#fff" d="M0 0h149.58v50H0z"/></clipPath></defs></svg>