<svg width="181" height="76" fill="none" xmlns="http://www.w3.org/2000/svg"><g clip-path="url(#a)"><path d="M86.877 36.32h6.144l9.781 12.798V36.322h6.521v24.198h-5.775L93.394 47.237V60.52h-6.517V36.32z" fill="#F5333F"/><path d="M112.605 36.32h10.191c6.01 0 9.878 3.148 9.878 8.51v.066c0 5.71-4.311 8.721-10.219 8.721h-3.26v6.901h-6.59V36.32zm9.712 12.038c2.344 0 3.772-1.247 3.772-3.147v-.07c0-2.075-1.428-3.182-3.804-3.182h-3.09v6.4h3.122zM134.339 48.495v-.066c0-6.957 5.162-12.596 12.042-12.596s11.974 5.573 11.974 12.526v.07c0 6.953-5.163 12.592-12.043 12.592-6.88 0-11.973-5.569-11.973-12.526zm17.711 0v-.066c0-3.495-2.325-6.54-5.733-6.54-3.408 0-5.637 2.975-5.637 6.47v.07c0 3.49 2.326 6.535 5.701 6.535 3.376 0 5.669-2.974 5.669-6.469zM158.175 36.32V42.2h6.83v18.334h6.59V42.199h7.607V36.32h-21.027zM174.528 57.924h.755l.613 1.013.612-1.013h.755v2.617h-.709V59.04l-.645 1.008-.653-1.018v1.496h-.728v-2.602zM177.756 57.924h1.215a1.08 1.08 0 0 1 .834.286.812.812 0 0 1 .23.61.848.848 0 0 1-.138.49.823.823 0 0 1-.392.317l.613.91h-.82l-.52-.793h-.313v.792h-.709v-2.612zm1.178 1.257c.244 0 .383-.117.383-.31 0-.206-.143-.309-.383-.309h-.46v.629l.46-.01z" fill="#fff"/><path d="M79.945 36.32a429.725 429.725 0 0 0-2.966 5.818v18.38h6.623V36.322h-3.657z" fill="#F5333F"/><path d="M102.462.113c-.415-1.009-3.822.938-4.334 1.2A32.63 32.63 0 0 0 91.75 5.87a82.05 82.05 0 0 0-10.813 12.024c-6.447 8.51-11.812 17.771-16.624 27.309a192.552 192.552 0 0 0-5.291 11.38c-.516 1.202-.922 2.6-1.635 3.707-.46.75-.424-.497-.36-.938.751-5.414 1.755-10.79 2.764-16.176.746-3.946 3.297-15.411 3.78-17.199.24-.872.654-1.83.544-2.749a3.314 3.314 0 0 0-.687-1.54 3.227 3.227 0 0 0-1.349-.988c-2.464-.939-4.121 1.482-5.526 3.129-1.773 2.087-3.421 4.278-4.996 6.525-3.178 4.546-6.102 9.285-8.824 14.126-1.133 2.008-2.137 4.082-3.224 6.099-.46.882-.612.169-.423-.47.322-1.111.585-2.246.88-3.372 1.455-5.494 3.136-10.922 4.577-16.42 1.193-4.555 2.454-9.313 2.694-14.046.092-1.877 0-3.81-.778-5.527a6.92 6.92 0 0 0-1.735-2.318 6.769 6.769 0 0 0-2.516-1.388c-4.145-1.337-8.75.47-12.41 2.402-4.523 2.412-8.53 5.705-12.214 9.28A86.97 86.97 0 0 0 7.14 30.705C4.206 34.834 1.29 39.46.412 44.56c-.42 2.43-.42 5.193.82 7.393.23.404 1.123 1.966 1.81 1.647.363-.173.16-.694.027-.962a6.725 6.725 0 0 1-.705-1.628c-.539-2.561.433-5.25 1.561-7.506a30.978 30.978 0 0 1 4.26-6.216A95.554 95.554 0 0 1 19.537 26.31a67.903 67.903 0 0 1 12.595-8.622c1.184-.606 2.46-1.351 3.809-1.45 2.205-.164 1.63 2.2 1.326 3.64-1.18 5.55-2.842 10.997-4.292 16.477-1.45 5.48-2.92 11.08-3.643 16.748-.539 4.222-.962 9.336.967 13.3a6.09 6.09 0 0 0 1.613 2.156c.69.586 1.5 1.007 2.37 1.23a5.726 5.726 0 0 0 2.963-.136 5.816 5.816 0 0 0 2.513-1.603 8.967 8.967 0 0 0 1.621-3.036c.46-1.295.995-2.575 1.506-3.86a743.293 743.293 0 0 1 3.224-7.976c2.141-5.217 4.296-10.434 6.719-15.524 1.201-2.52 2.459-5.024 3.85-7.445a62.179 62.179 0 0 1 2.224-3.542c.216-.328 1.381-2.5 1.842-2.322.46.178-.502 2.894-.594 3.284l-1.027 4.081c-.705 2.815-1.382 5.583-2.114 8.37-1.4 5.521-2.864 11.057-4.048 16.687-.566 2.749-1.11 5.526-1.423 8.318a30.902 30.902 0 0 0-.216 4.175c.023 1.13.106 2.214.695 3.2a4.872 4.872 0 0 0 2.19 1.923 4.762 4.762 0 0 0 2.876.31c2.422-.507 3.306-2.539 4.213-4.622C65.87 59.543 70.94 49.24 76.111 39.01c4.923-9.74 10.058-19.436 16.394-28.312a57.41 57.41 0 0 1 4.836-6.005 23.7 23.7 0 0 1 2.846-2.623A20.644 20.644 0 0 1 101.868.91c.281-.16.764-.375.594-.797z" fill="#EF3842"/></g><defs><clipPath id="a"><path fill="#fff" d="M0 0h180.061v76H0z"/></clipPath></defs></svg>