<svg width="40" height="16" fill="none" xmlns="http://www.w3.org/2000/svg"><g clip-path="url(#a)"><path d="M38.162 1.166H.97v13.41h37.192V1.166z" fill="#36904E"/><path d="M32.766 5.84s.267-.13.441-.044c.18.087 3.86 3.996 3.86 3.996s.267.354.397.354.267-1.597.18-2.082c-.087-.49-2.349-4.126-2.97-4.213-.621-.1-1.908 1.989-1.908 1.989z" fill="#FBB040"/><path d="M36.365 5.803s-.268-.13-.442-.044c-.18.087-3.859 3.996-3.859 3.996s-.267.354-.397.354-.268-1.597-.18-2.082c.086-.49 2.348-4.126 2.97-4.213.621-.1 1.908 1.989 1.908 1.989z" fill="#ED1D24"/><path d="M6.823 5.633c.124-.043.329-.074.528-.074.292 0 .478.074.615.236.118.124.193.317.193.565 0 .317-.15.584-.38.702v.013c.212.074.467.323.467.802 0 .273-.075.49-.193.64-.155.205-.404.298-.77.298-.2 0-.355-.019-.448-.037V5.633h-.012zm.285 1.311h.261c.305 0 .485-.236.485-.54 0-.373-.199-.522-.49-.522a.717.717 0 0 0-.256.03v1.032zm0 1.535c.063.013.137.019.243.019.298 0 .578-.155.578-.621 0-.435-.261-.616-.578-.616h-.243V8.48zM10.091 7.624c0 .851-.416 1.224-.801 1.224-.435 0-.77-.46-.77-1.187 0-.764.353-1.218.8-1.218.454 0 .771.479.771 1.181zm-1.28.025c0 .503.2.882.485.882.28 0 .49-.372.49-.895 0-.391-.136-.882-.484-.882-.342 0-.49.46-.49.895zM11.85 5.41v2.784c0 .205.006.441.012.597H11.6l-.013-.398h-.012c-.087.255-.28.454-.54.454-.392 0-.697-.473-.697-1.175-.006-.764.336-1.23.721-1.23.249 0 .417.168.485.348h.006V5.416h.299V5.41zm-.293 2.014c0-.05-.006-.125-.012-.174-.043-.261-.205-.479-.423-.479-.304 0-.484.38-.484.883 0 .466.161.85.478.85.2 0 .38-.192.429-.502.012-.056.012-.112.012-.18v-.398zM12.502 7.717c.007.566.255.802.554.802a.77.77 0 0 0 .447-.118l.056.298a.986.986 0 0 1-.54.15c-.498 0-.796-.473-.796-1.169 0-.696.286-1.237.758-1.237.528 0 .665.66.665 1.082 0 .087-.006.149-.013.192h-1.13zm.864-.298c.007-.261-.074-.677-.404-.677-.298 0-.428.385-.447.677h.851zM15.392 8.455c0 .535-.074.852-.23 1.057a.727.727 0 0 1-.59.273.805.805 0 0 1-.534-.193l.074-.323c.106.1.274.187.472.187.299 0 .522-.224.522-.808v-.255H15.1c-.087.218-.26.385-.516.385-.397 0-.683-.484-.683-1.124 0-.783.354-1.218.727-1.218.28 0 .429.205.503.397h.006l.013-.348h.26c-.012.162-.012.354-.012.628v1.342h-.006zM15.1 7.4a.823.823 0 0 0-.018-.187c-.057-.248-.193-.447-.41-.447-.28 0-.48.335-.48.87 0 .454.162.826.48.826.18 0 .347-.161.403-.428a.917.917 0 0 0 .025-.224v-.41zM17.008 8.24c0 .198.006.39.024.552h-.26l-.025-.292h-.013c-.087.18-.26.342-.49.342-.33 0-.492-.33-.492-.659 0-.559.348-.863.97-.857v-.05c0-.186-.038-.534-.367-.528a.603.603 0 0 0-.423.174l-.068-.28a.817.817 0 0 1 .534-.199c.498 0 .616.479.616.939v.857h-.006zm-.28-.622c-.317-.013-.684.074-.684.516 0 .273.13.397.274.397.211 0 .348-.192.397-.385.013-.05.013-.093.013-.13v-.398zM18.14 8.052l-.193.783h-.622l.815-3.058h.795l.833 3.058h-.653l-.205-.783h-.77zm.677-.522-.168-.653c-.05-.18-.093-.41-.137-.59h-.006c-.037.18-.08.416-.124.59l-.162.653h.597zM21.868 8.12c0 .292.006.528.019.714h-.522l-.025-.31h-.012a.68.68 0 0 1-.61.36c-.397 0-.683-.28-.683-.97V6.61h.603v1.193c0 .323.093.516.304.516.168 0 .267-.13.305-.243a.377.377 0 0 0 .025-.149V6.604h.602V8.12h-.006zM22.352 7.344c0-.33-.007-.541-.019-.734h.516l.025.41h.018c.1-.329.336-.46.522-.46.056 0 .081.007.125.013v.652c-.05-.006-.094-.018-.162-.018-.224 0-.373.137-.41.348-.006.043-.013.1-.013.155v1.125h-.602V7.344zM23.862 7.344c0-.33-.007-.541-.019-.734h.516l.025.41h.018c.1-.329.336-.46.522-.46.056 0 .081.007.125.013v.652c-.05-.006-.094-.018-.162-.018-.224 0-.373.137-.41.348-.006.043-.013.1-.013.155v1.125h-.602V7.344zM25.801 7.948c.019.286.267.423.547.423.205 0 .373-.032.534-.094l.081.466a1.666 1.666 0 0 1-.702.143c-.659 0-1.038-.435-1.038-1.13 0-.566.305-1.188.982-1.188.628 0 .864.56.864 1.107 0 .118-.013.223-.019.273h-1.249zm.715-.472c0-.168-.062-.448-.342-.448-.255 0-.36.267-.373.448h.715zM27.435 7.344c0-.33-.006-.541-.018-.734h.515l.025.41h.019c.1-.329.336-.46.522-.46.056 0 .08.007.124.013v.652c-.05-.006-.093-.018-.161-.018-.224 0-.373.137-.41.348-.007.043-.013.1-.013.155v1.125h-.603V7.344zM30.512 8.3c0 .212.006.417.03.535h-.54l-.037-.223h-.013a.672.672 0 0 1-.553.273c-.391 0-.628-.33-.628-.684 0-.577.454-.85 1.138-.85v-.026c0-.124-.056-.292-.354-.292a.957.957 0 0 0-.535.168l-.112-.447c.137-.087.404-.2.752-.2.646 0 .852.436.852.964V8.3zm-.578-.515c-.317 0-.566.087-.566.348 0 .18.106.261.236.261a.33.33 0 0 0 .31-.255.69.69 0 0 0 .013-.118v-.236h.007z" fill="#fff"/><path d="M.92 5.684v6.189s1.571.64 3.684.69c2.113.05 33.6 0 33.6 0v-.752h-26.28S5.096 11.233.92 5.684z" fill="#FBB040"/><path d="M4.605 13.254c-1.467-.093-3.623-.82-3.623-.82l-.038 1.678c2.113.05 37.23 0 37.23 0v-.752H9.197s-3.126-.013-4.592-.106z" fill="#ED1D24"/></g><defs><clipPath id="a"><path fill="#fff" transform="translate(.457 .82)" d="M0 0h38.897v14.586H0z"/></clipPath></defs></svg>