<svg width="31" height="40" fill="none" xmlns="http://www.w3.org/2000/svg"><path d="m12.742 21.235 2.755-2.075 2.707 2.075c.285.223.57.242.855.049.285-.193.38-.463.285-.82L18.3 17.036l2.898-2.269c.256-.222.323-.502.218-.82-.104-.319-.342-.483-.693-.483h-3.468l-1.092-3.571c-.095-.319-.314-.492-.665-.512-.352-.02-.57.155-.665.512l-1.14 3.571h-3.42c-.352 0-.58.164-.694.483-.114.318-.038.598.219.82l2.897 2.269-1.045 3.426c-.095.357 0 .628.285.82.285.194.551.174.808-.048zM6.187 39.913a1.359 1.359 0 0 1-1.311-.193c-.4-.29-.599-.695-.599-1.206V25.869c-1.425-1.516-2.45-3.166-3.068-4.971-.618-1.805-.931-3.62-.931-5.454.019-4.373 1.472-8.04 4.389-11.004C7.583 1.477 11.193 0 15.497 0c4.303 0 7.913 1.477 10.83 4.44 2.916 2.963 4.37 6.631 4.37 11.004 0 1.834-.314 3.649-.931 5.454-.618 1.805-1.644 3.455-3.069 4.97v12.646c0 .511-.2.916-.598 1.206-.4.29-.836.357-1.311.193l-9.31-3.185-9.31 3.185h.019zm9.31-11.92c3.448 0 6.374-1.217 8.768-3.65 2.394-2.432 3.591-5.395 3.591-8.909 0-3.513-1.197-6.476-3.59-8.909-2.395-2.432-5.311-3.649-8.77-3.649-3.457 0-6.374 1.217-8.768 3.65-2.394 2.432-3.59 5.395-3.59 8.908 0 3.514 1.196 6.477 3.59 8.91 2.394 2.432 5.31 3.648 8.769 3.648z" fill="url(#a)"/><defs><linearGradient id="a" x1=".297" y1="0" x2="30.697" y2="40" gradientUnits="userSpaceOnUse"><stop stop-color="#CB2D3E"/><stop offset="1" stop-color="#EF473A"/></linearGradient></defs></svg>