<svg width="22" height="21" fill="none" xmlns="http://www.w3.org/2000/svg"><g clip-path="url(#a)" stroke="#EF3842" stroke-linecap="round" stroke-linejoin="round"><path d="m9.769 8.883.052-.12a1.058 1.058 0 0 0-.539-1.388l-.8-.353a1.04 1.04 0 0 0-1.376.544l-.178.41a1.06 1.06 0 0 0 .259 1.205l1.2 1.09c.335.304.44.79.259 1.206l-.177.41a1.04 1.04 0 0 1-1.376.544l-.8-.354a1.059 1.059 0 0 1-.54-1.388l.052-.12M6.667 12.348l-.359.83M9.27 6.334l-.368.852"/><path d="M18.944 6.988h.835c.917 0 1.66-.75 1.66-1.675V3.248c0-.925-.743-1.676-1.66-1.676H2.167c-.917 0-1.66.75-1.66 1.676v2.065c0 .925.743 1.675 1.66 1.675h.623"/><path d="M9.095 16.209H.4l5.83-12.613h8.693l-5.83 12.613z"/><path d="m16.048 5.33-5.83 12.614H1.525"/><path d="M17.2 7.096 11.371 19.71H2.678"/></g><defs><clipPath id="a"><path fill="#fff" transform="translate(0 .114)" d="M0 0h21.905v20H0z"/></clipPath></defs></svg>