<svg width="24" height="24" viewBox="0 0 24 24" fill="none" xmlns="http://www.w3.org/2000/svg">
<path fill-rule="evenodd" clip-rule="evenodd" d="M12 16C9.792 16 8 14.208 8 12C8 9.792 9.792 8 12 8C14.208 8 16 9.792 16 12C16 14.208 14.208 16 12 16ZM12 14C10.8966 14 10 13.1034 10 12C10 10.8966 10.8966 10 12 10C13.1034 10 14 10.8966 14 12C14 13.1034 13.1034 14 12 14Z" fill="#A4A4A4"/>
<path fill-rule="evenodd" clip-rule="evenodd" d="M12 4.5C7.28059 4.5 4.10246 7.27074 2.30584 11.2733C2.09843 11.7354 2.09843 12.2646 2.30584 12.7267C4.10246 16.7293 7.28059 19.5 12 19.5C16.7194 19.5 19.8975 16.7293 21.6942 12.7267C21.9016 12.2646 21.9016 11.7354 21.6942 11.2733C19.8975 7.27074 16.7194 4.5 12 4.5ZM12 17.5C8.29337 17.5 5.73693 15.4221 4.17229 12C5.73693 8.57785 8.29337 6.5 12 6.5C15.7066 6.5 18.2631 8.57785 19.8277 12C18.2631 15.4221 15.7066 17.5 12 17.5Z" fill="#A4A4A4"/>
</svg>
