<svg width="42" height="40" fill="none" xmlns="http://www.w3.org/2000/svg"><path d="M11.714 37c3.183 2 6.485 3 9.907 3l.009.01c2.78 0 5.394-.528 7.843-1.574a20.414 20.414 0 0 0 6.42-4.3 20.21 20.21 0 0 0 4.34-6.363c1.055-2.427 1.587-5.018 1.587-7.773h-2.752c0 2.364-.459 4.6-1.376 6.71a17.455 17.455 0 0 1-3.743 5.5c-1.578 1.563-3.421 2.8-5.55 3.708-2.128.91-4.384 1.364-6.77 1.364-2.971 0-5.898-.936-8.787-2.8-2.89-1.864-5.119-3.964-6.678-6.3h4.449v-2.727H1.44v9.09h2.752v-4.409C6.026 32.71 8.53 35 11.714 37z" fill="url(#a)"/><path d="m10.98 3 1.467 2.318V5.31a18.163 18.163 0 0 1 4.34-1.909 17.125 17.125 0 0 1 4.843-.682c3 0 5.935.937 8.806 2.8 2.871 1.864 5.091 3.964 6.65 6.3h-4.448v2.728h9.173V5.455h-2.752v4.409C37.224 7.29 34.719 5 31.537 3c-3.183-2-6.486-3-9.907-3-1.963 0-3.835.255-5.623.773A19.911 19.911 0 0 0 10.98 3z" fill="url(#b)"/><path d="m4.971 14.682 1.973 4.545 1.972-4.545 4.77-2.091-4.77-2.045-1.972-4.319-1.973 4.319-4.77 2.045 4.77 2.09z" fill="url(#c)"/><path d="M20.673 32.682c.266.245.56.363.899.363l.018.019c.34 0 .624-.128.872-.391.247-.264.367-.555.367-.891V30.69c1.834-.218 3.284-.827 4.338-1.845 1.055-1.019 1.587-2.319 1.587-3.891 0-1.573-.44-2.837-1.311-3.773-.872-.936-2.385-1.755-4.523-2.455-1.926-.636-3.256-1.272-3.972-1.89-.724-.628-1.082-1.437-1.082-2.437 0-.945.349-1.673 1.037-2.21.688-.535 1.632-.8 2.825-.8.734 0 1.394.137 1.972.41a4.215 4.215 0 0 1 1.514 1.227c.21.246.477.41.78.5.302.091.596.064.87-.09.34-.155.57-.391.67-.728a.954.954 0 0 0-.165-.909 5.937 5.937 0 0 0-1.908-1.727c-.752-.428-1.605-.682-2.55-.773V8.21c0-.337-.119-.62-.367-.865a1.184 1.184 0 0 0-.871-.363c-.34 0-.633.118-.9.363-.265.246-.394.528-.394.864V9.3c-1.559.21-2.788.773-3.696 1.682-.909.909-1.358 2.045-1.358 3.409 0 1.482.395 2.664 1.174 3.545.78.882 2.23 1.71 4.34 2.5 2.173.819 3.604 1.528 4.31 2.137.707.609 1.055 1.363 1.055 2.363s-.412 1.846-1.238 2.528c-.826.681-1.835 1.027-3.027 1.027a5.512 5.512 0 0 1-2.78-.727 4.912 4.912 0 0 1-1.953-2.046 1.64 1.64 0 0 0-.624-.573.971.971 0 0 0-.808-.072c-.403.154-.67.39-.807.709-.137.318-.091.645.12.982.614 1 1.339 1.809 2.183 2.436.844.627 1.844 1.09 3.009 1.39v1.228c0 .337.128.618.394.864z" fill="url(#d)"/><defs><linearGradient id="a" x1=".201" y1="0" x2="41.801" y2="40" gradientUnits="userSpaceOnUse"><stop stop-color="#0CEBEB"/><stop offset=".556" stop-color="#20E3B2"/><stop offset="1" stop-color="#29FFC6"/></linearGradient><linearGradient id="b" x1=".201" y1="0" x2="41.801" y2="40" gradientUnits="userSpaceOnUse"><stop stop-color="#0CEBEB"/><stop offset=".556" stop-color="#20E3B2"/><stop offset="1" stop-color="#29FFC6"/></linearGradient><linearGradient id="c" x1=".201" y1="0" x2="41.801" y2="40" gradientUnits="userSpaceOnUse"><stop stop-color="#0CEBEB"/><stop offset=".556" stop-color="#20E3B2"/><stop offset="1" stop-color="#29FFC6"/></linearGradient><linearGradient id="d" x1=".201" y1="0" x2="41.801" y2="40" gradientUnits="userSpaceOnUse"><stop stop-color="#0CEBEB"/><stop offset=".556" stop-color="#20E3B2"/><stop offset="1" stop-color="#29FFC6"/></linearGradient></defs></svg>