<svg width="22" height="23" fill="none" xmlns="http://www.w3.org/2000/svg"><path d="M11 2.575h4.463c1.05 0 1.575.262 1.968.394.525.262.919.393 1.313.787.393.394.656.788.787 1.313.132.393.263.918.394 1.968v8.926c0 1.05-.262 1.575-.394 1.968-.262.525-.393.919-.787 1.313-.394.393-.788.656-1.313.787-.393.132-.919.263-1.969.394H6.537c-1.05 0-1.575-.262-1.968-.394-.525-.262-.919-.393-1.313-.787-.394-.394-.656-.788-.787-1.313-.132-.393-.263-.919-.394-1.969V7.037c0-1.05.262-1.575.394-1.968.262-.525.393-.92.787-1.313.394-.394.788-.656 1.313-.787.393-.132.918-.263 1.968-.394H11zm0-1.969H6.537c-1.18 0-1.968.263-2.625.525a5.731 5.731 0 0 0-1.968 1.313C1.287 3.1 1.025 3.625.63 4.412.37 5.07.237 5.856.106 7.037v8.926c0 1.18.263 1.968.525 2.624a5.73 5.73 0 0 0 1.313 1.97c.656.655 1.181.918 1.968 1.312.657.262 1.444.393 2.625.525h8.926c1.18 0 1.968-.263 2.624-.525a5.73 5.73 0 0 0 1.97-1.313c.655-.656.918-1.181 1.312-1.969.262-.656.393-1.443.525-2.624V7.037c0-1.18-.263-1.968-.525-2.625a5.73 5.73 0 0 0-1.313-1.968c-.656-.657-1.181-.919-1.969-1.313-.656-.262-1.443-.394-2.624-.525H11z" fill="#fff"/><path d="M11 5.856A5.602 5.602 0 0 0 5.356 11.5 5.602 5.602 0 0 0 11 17.144a5.602 5.602 0 0 0 5.644-5.644A5.602 5.602 0 0 0 11 5.856zm0 9.319c-1.969 0-3.675-1.575-3.675-3.675C7.325 9.531 8.9 7.825 11 7.825c1.969 0 3.675 1.575 3.675 3.675 0 1.969-1.706 3.675-3.675 3.675zM16.775 7.037a1.313 1.313 0 1 0 0-2.625 1.313 1.313 0 0 0 0 2.625z" fill="#fff"/></svg>