<svg width="33" height="41" fill="none" xmlns="http://www.w3.org/2000/svg"><path d="m14.45 21.914-3.95-3.98c-.3-.302-.67-.453-1.1-.453-.43 0-.8.151-1.1.453-.3.303-.45.676-.45 1.109 0 .433.15.806.45 1.108l4.95 4.988c.3.302.66.453 1.08.453.42 0 .78-.151 1.08-.453l9.25-9.32c.27-.272.4-.625.4-1.058 0-.433-.13-.786-.4-1.058s-.61-.403-1.03-.403c-.42 0-.76.13-1.03.403l-8.15 8.211zM16.5 40c-.13 0-.26 0-.38-.03s-.23-.04-.33-.08c-4.47-1.34-8.13-4.112-11-8.293C1.93 27.436.5 22.841.5 17.834V7.96c0-.635.18-1.22.55-1.743a3.21 3.21 0 0 1 1.4-1.139l13-4.876C15.82.07 16.17 0 16.5 0c.33 0 .68.07 1.05.202l13 4.886c.57.232 1.03.615 1.4 1.139.37.524.55 1.098.55 1.743v9.874c0 5.007-1.43 9.602-4.3 13.783-2.87 4.182-6.53 6.942-11 8.292l-.7.101V40z" fill="url(#a)"/><defs><linearGradient id="a" x1=".5" y1="0" x2="32.5" y2="40" gradientUnits="userSpaceOnUse"><stop stop-color="#88B605"/><stop offset="1" stop-color="#E4C900"/></linearGradient></defs></svg>