<svg width="31" height="20" fill="none" xmlns="http://www.w3.org/2000/svg"><path fill-rule="evenodd" clip-rule="evenodd" d="M15.836 17.04a9.066 9.066 0 0 1-5.944 2.214c-5.06 0-9.163-4.15-9.163-9.27 0-5.12 4.102-9.27 9.163-9.27 2.268 0 4.344.834 5.944 2.215A9.066 9.066 0 0 1 21.779.714c5.061 0 9.164 4.15 9.164 9.27 0 5.12-4.103 9.27-9.164 9.27a9.066 9.066 0 0 1-5.943-2.215z" fill="#ED0006"/><path fill-rule="evenodd" clip-rule="evenodd" d="M15.836 17.04a9.293 9.293 0 0 0 3.22-7.056 9.293 9.293 0 0 0-3.22-7.055A9.065 9.065 0 0 1 21.779.714c5.061 0 9.164 4.15 9.164 9.27 0 5.12-4.103 9.27-9.164 9.27a9.066 9.066 0 0 1-5.943-2.215z" fill="#F9A000"/><path fill-rule="evenodd" clip-rule="evenodd" d="M15.836 2.929a9.293 9.293 0 0 1 3.22 7.055 9.294 9.294 0 0 1-3.22 7.055 9.293 9.293 0 0 1-3.22-7.055 9.293 9.293 0 0 1 3.22-7.055z" fill="#FF5E00"/></svg>