<svg width="42" height="19" fill="none" xmlns="http://www.w3.org/2000/svg"><g clip-path="url(#a)" fill-rule="evenodd" clip-rule="evenodd"><path d="M.508 1.279c0-.706.574-1.284 1.276-1.284h38.433c.702 0 1.276.578 1.276 1.284V17.71c0 .707-.574 1.284-1.276 1.284H1.784a1.284 1.284 0 0 1-1.276-1.284V1.28z" fill="#F0A929"/><path d="M.508 1.861h40.986V17.13H.508V1.861z" fill="#fff"/><path d="M35.243 5.827c-1.876 0-3.404 1.537-3.404 3.423 0 1.886 1.529 3.424 3.404 3.424 1.874 0 3.403-1.538 3.403-3.424s-1.529-3.423-3.403-3.423zM7.187 5.827c-1.876 0-3.405 1.537-3.405 3.423 0 1.886 1.53 3.424 3.405 3.424 1.874 0 3.403-1.538 3.403-3.424S9.06 5.827 7.187 5.827z" fill="#E21C2A"/><path d="M34.975 2.813c-3.15-.073-4.632 1.96-6.782 4.466l-2.028 2.364 3.211 3.867c.765 1.189-.695 2.368-1.601 1.28l-2.97-3.562-2.893 3.374c-.921 1.074-2.365-.126-1.583-1.303l3.14-3.674-2.057-2.47 1.324-1.648 2.092 2.528 1.805-2.11c.885-1.035 1.787-2.407 2.957-3.112H.508v13.364h6.8c3.15 0 4.582-1.895 6.673-4.45l1.974-2.411-3.3-3.791c-.792-1.17.64-2.383 1.572-1.317l3.05 3.493 2.816-3.44c.896-1.096 2.366.07 1.612 1.266L18.65 9.273l2.114 2.42-1.332 1.587-2.104-2.387-1.755 2.151c-.861 1.056-1.733 2.401-2.887 3.133h28.809V2.813h-6.519zM12.565 9.25c0 2.98-2.416 5.409-5.378 5.409-2.963 0-5.378-2.43-5.378-5.409 0-2.98 2.415-5.409 5.378-5.409 2.962 0 5.377 2.43 5.377 5.41zm22.677 5.409c-2.962 0-5.378-2.43-5.378-5.409 0-2.98 2.416-5.409 5.378-5.409s5.378 2.43 5.378 5.41c0 2.979-2.416 5.408-5.378 5.408z" fill="#E21C2A"/></g><defs><clipPath id="a"><path fill="#fff" transform="translate(.5 -.001)" d="M0 0h41v19H0z"/></clipPath></defs></svg>