<svg width="40" height="13" viewBox="0 0 40 13" fill="none" xmlns="http://www.w3.org/2000/svg">
<g clip-path="url(#clip0_102_728)">
<path fill-rule="evenodd" clip-rule="evenodd" d="M11.6806 11.8821V0.403442H17.7266C18.9533 0.403442 19.3038 0.491066 20.2677 1.0168C21.2315 1.54254 21.4068 2.76927 21.4068 3.47026C21.4068 3.5386 21.4076 3.60862 21.4085 3.68038C21.4164 4.34461 21.4261 5.15854 20.7934 6.18657C20.1108 7.29588 18.9295 7.4911 18.3826 7.58148C18.368 7.5839 18.3537 7.58625 18.34 7.58855C17.8142 7.67617 15.2732 7.58855 15.2732 7.58855V11.8821H11.6806ZM15.2732 5.31034V2.76927C15.2732 2.76927 16.7627 2.68165 17.2009 2.76927C17.639 2.85689 17.9895 3.20739 18.0771 4.08362C18.1647 4.95985 17.2885 5.31034 16.938 5.31034H15.2732Z" fill="#323184"/>
<path d="M22.4144 0.556763V12.0135H32.1406V9.53814H26.0508V6.88754H31.5711V4.56553H26.0508V3.38261H32.1406V0.556763H22.4144Z" fill="#F3921A"/>
<path d="M33.455 4.21504H34.7693V1.76159L37.1351 4.91603V0.359619H33.455V4.21504Z" fill="#323184"/>
<path d="M33.455 6.66849H34.7693V9.03432L37.1351 5.87988V11.8383H33.455V6.66849Z" fill="#323184"/>
<path d="M38.4565 1.4969V0.554077H38.8569C38.9577 0.554077 39.0313 0.562839 39.0769 0.579488C39.1224 0.596136 39.1592 0.626804 39.1864 0.66974C39.2135 0.712675 39.2276 0.76262 39.2276 0.818699C39.2276 0.889674 39.2065 0.947505 39.1654 0.993946C39.1242 1.04039 39.062 1.0693 38.9787 1.08069C39.0199 1.10435 39.0541 1.13151 39.0804 1.15955C39.1066 1.18759 39.1434 1.23929 39.189 1.31289L39.3038 1.4969H39.076L38.9384 1.29186C38.8893 1.21826 38.856 1.1727 38.8376 1.15342C38.8192 1.13414 38.8008 1.121 38.7807 1.11399C38.7605 1.10698 38.729 1.10347 38.6852 1.10347H38.6466V1.4969H38.4565ZM38.6466 0.952763H38.7877C38.8788 0.952763 38.9358 0.949258 38.9586 0.941372C38.9813 0.933486 38.9989 0.920342 39.012 0.901065C39.0252 0.881788 39.0313 0.859006 39.0313 0.83009C39.0313 0.798546 39.0225 0.773135 39.0059 0.752982C38.9892 0.732829 38.9647 0.721437 38.934 0.71618C38.9183 0.714428 38.8727 0.712675 38.7947 0.712675H38.6457V0.951887L38.6466 0.952763Z" fill="#323184"/>
<path d="M38.8806 1.93682C38.3785 1.93682 37.9693 1.52762 37.9693 1.02554C37.9693 0.523458 38.3785 0.114258 38.8806 0.114258C39.3827 0.114258 39.7919 0.523458 39.7919 1.02554C39.7919 1.52762 39.3827 1.93682 38.8806 1.93682ZM38.8806 0.289504C38.4749 0.289504 38.1445 0.619844 38.1445 1.02554C38.1445 1.43123 38.4749 1.76157 38.8806 1.76157C39.2863 1.76157 39.6166 1.43123 39.6166 1.02554C39.6166 0.619844 39.2863 0.289504 38.8806 0.289504Z" fill="#323184"/>
<path d="M0.333374 8.0705L3.66306 7.89526C3.79449 8.49723 3.97324 9.0992 4.37456 9.41114C4.77587 9.72308 4.98704 9.87905 5.70906 9.87905C6.5038 9.87905 6.57653 9.73272 6.97696 9.4383C7.24684 9.23326 7.38178 8.95725 7.38178 8.61289C7.38178 8.37806 7.30906 8.18354 7.16273 8.02932C7.00939 7.88299 6.66678 7.57193 6.13403 7.44663C3.65429 6.89635 2.60895 6.39339 1.94476 5.93863C1.0256 5.30774 0.829321 4.60588 0.829321 3.48255C0.829321 2.46963 1.31475 1.79405 2.1095 1.10358C2.90424 0.414862 3.96185 0.244873 5.63195 0.244873C7.30205 0.244873 8.40347 0.505114 9.17631 1.02647C9.94914 1.54783 10.1621 2.6256 10.4539 3.64553L7.12417 3.82078C6.99975 3.36601 6.90161 2.89898 6.5555 2.65626C6.20939 2.41442 5.80982 2.24356 5.37171 2.24356C4.93359 2.24356 4.73556 2.31979 4.38507 2.54674C4.15199 2.70796 4.03458 2.91738 4.03458 3.17412C4.03458 3.39405 4.13622 3.58157 4.34126 3.73578C4.61815 3.9417 4.96251 4.05561 6.59931 4.43063C8.23611 4.80479 9.20435 5.35155 9.85363 5.89394C10.495 6.44422 10.8166 7.2118 10.8166 8.19493C10.8166 9.26656 10.3715 10.1875 9.48211 10.9586C8.59186 11.7288 7.45101 12.1143 5.70818 12.1143C4.12571 12.1143 2.69745 11.7919 1.77565 11.1452C0.852979 10.4994 0.618149 9.17894 0.333374 8.0705Z" fill="#323184"/>
</g>
<defs>
<clipPath id="clip0_102_728">
<rect width="39.4585" height="12" fill="white" transform="translate(0.333374 0.114258)"/>
</clipPath>
</defs>
</svg>
