<svg width="37" height="41" viewBox="0 0 37 41" fill="none" xmlns="http://www.w3.org/2000/svg">
<path d="M21.3498 40L20.8322 34.5H18.7616C13.8232 34.5 9.61995 32.82 6.13101 29.45C2.64207 26.08 0.902771 22.02 0.902771 17.25C0.902771 12.48 2.65242 8.42 6.16207 5.05C9.66136 1.68 13.8957 0 18.8651 0C21.3188 0 23.5861 0.43 25.6774 1.28C27.7687 2.13 29.5908 3.32 31.1437 4.86C32.6967 6.39 33.9183 8.2 34.7983 10.29C35.6783 12.38 36.1235 14.65 36.1235 17.12C36.1235 21.59 34.819 25.9 32.2101 30.05C29.6011 34.2 25.988 37.53 21.3602 40.03L21.3498 40ZM18.8651 28.85C19.4138 28.85 19.8797 28.67 20.2628 28.3C20.6458 27.93 20.8322 27.48 20.8322 26.95C20.8322 26.42 20.6458 25.97 20.2628 25.6C19.8797 25.23 19.4138 25.05 18.8651 25.05C18.3164 25.05 17.8505 25.23 17.4675 25.6C17.0844 25.97 16.8981 26.42 16.8981 26.95C16.8981 27.48 17.0844 27.93 17.4675 28.3C17.8505 28.67 18.3164 28.85 18.8651 28.85ZM18.7616 22.05C19.1032 22.05 19.4138 21.93 19.6727 21.7C19.9315 21.47 20.0971 21.17 20.1696 20.8C20.2731 20.33 20.4905 19.88 20.8218 19.45C21.1531 19.02 21.6604 18.47 22.3541 17.8C23.2858 16.9 23.9381 16.07 24.3211 15.32C24.7042 14.57 24.8905 13.76 24.8905 12.89C24.8905 11.39 24.3625 10.16 23.3065 9.19C22.2505 8.22 20.8425 7.74 19.0825 7.74C17.8712 7.74 16.7635 8 15.7385 8.52C14.7136 9.04 13.8957 9.76 13.2745 10.7C13.0675 11 13.0364 11.31 13.171 11.63C13.3056 11.95 13.5644 12.19 13.9475 12.36C14.227 12.46 14.5169 12.46 14.8275 12.36C15.1381 12.26 15.3969 12.08 15.6039 11.81C15.987 11.28 16.4632 10.88 17.0327 10.63C17.6021 10.38 18.2336 10.25 18.9272 10.25C19.9625 10.25 20.7701 10.49 21.3602 10.98C21.9503 11.46 22.2402 12.11 22.2402 12.91C22.2402 13.54 22.0538 14.19 21.6708 14.84C21.2877 15.49 20.6148 16.3 19.652 17.27C18.9272 18 18.4096 18.61 18.099 19.1C17.7884 19.59 17.6021 20.16 17.5296 20.83C17.4985 21.16 17.6021 21.46 17.8402 21.71C18.0783 21.96 18.3889 22.09 18.772 22.09L18.7616 22.05ZM23.9381 31.5V34.6C26.7644 32.3 28.9903 29.59 30.595 26.47C32.1997 23.35 33.0072 20.23 33.0072 17.09C33.0072 12.96 31.6717 9.57 28.9903 6.94C26.3089 4.31 22.9442 2.99 18.8651 2.99C14.7861 2.99 11.2143 4.38 8.32583 7.17C5.44771 9.95 3.9983 13.31 3.9983 17.25C3.9983 21.19 5.43736 24.54 8.32583 27.33C11.2039 30.11 14.6825 31.51 18.7616 31.51H23.9381V31.5Z" fill="url(#paint0_linear_1_2166)"/>
<defs>
<linearGradient id="paint0_linear_1_2166" x1="0.902771" y1="0" x2="36.1028" y2="40" gradientUnits="userSpaceOnUse">
<stop stop-color="#5B86E5"/>
<stop offset="1" stop-color="#36D1DC"/>
</linearGradient>
</defs>
</svg>
