<svg width="22" height="21" viewBox="0 0 22 21" fill="none" xmlns="http://www.w3.org/2000/svg">
<g clip-path="url(#clip0_102_592)">
<path d="M12.7228 8.8875L20.3685 0H18.5567L11.918 7.71689L6.61564 0H0.5L8.5182 11.6693L0.5 20.9892H2.31189L9.32259 12.8399L14.9223 20.9892H21.0379L12.7224 8.8875H12.7228ZM10.2412 11.7721L9.4288 10.6101L2.96474 1.36396H5.74769L10.9643 8.8259L11.7767 9.9879L18.5576 19.6873H15.7747L10.2412 11.7726V11.7721Z" fill="white"/>
<g clip-path="url(#clip1_102_592)">
<path d="M12.7228 8.8875L20.3685 0H18.5567L11.918 7.71689L6.61564 0H0.5L8.5182 11.6693L0.5 20.9892H2.31189L9.32259 12.8399L14.9223 20.9892H21.0379L12.7224 8.8875H12.7228ZM10.2412 11.7721L9.4288 10.6101L2.96474 1.36396H5.74769L10.9643 8.8259L11.7767 9.9879L18.5576 19.6873H15.7747L10.2412 11.7726V11.7721Z" fill="white"/>
</g>
</g>
<defs>
<clipPath id="clip0_102_592">
<rect width="20.5379" height="21" fill="white" transform="translate(0.5)"/>
</clipPath>
<clipPath id="clip1_102_592">
<rect width="20.5379" height="21" fill="white" transform="translate(0.5)"/>
</clipPath>
</defs>
</svg>
