<svg width="53" height="40" viewBox="0 0 53 40" fill="none" xmlns="http://www.w3.org/2000/svg">
<path d="M14.6048 39.8376C14.2743 40.0541 13.9438 40.0541 13.6133 39.8376C13.2828 39.6211 13.1727 39.2963 13.2828 38.8633L17.5793 24.7903L6.23215 16.7794C5.90165 16.5629 5.79148 16.2382 5.90165 15.9134C6.01182 15.5886 6.34232 15.3721 6.67282 15.3721H20.8843L25.4012 0.649526C25.5113 0.433018 25.6215 0.324763 25.7317 0.216509C25.8418 0.108254 26.0622 0 26.1723 0C26.3927 0 26.5028 0.108254 26.613 0.216509C26.7232 0.324763 26.8333 0.433018 26.9435 0.649526L31.4603 15.3721H45.6718C46.1125 15.3721 46.3328 15.5886 46.443 15.9134C46.5532 16.2382 46.443 16.5629 46.1125 16.7794L34.6552 24.7903L39.0618 38.8633C39.172 39.2963 39.0618 39.6211 38.7313 39.8376C38.4008 40.0541 38.0703 40.0541 37.7398 39.8376L26.1723 31.1773L14.6048 39.8376ZM45.782 39.7294L43.3583 37.7808L39.833 26.5223L48.3158 20.5683H51.2904C51.731 20.5683 51.9514 20.7848 52.0615 21.1096C52.1717 21.5426 52.0615 21.7591 51.731 21.9756L43.5787 27.9296L46.9938 38.9716C47.104 39.4046 46.9939 39.6211 46.6633 39.8376C46.3328 40.0541 46.1125 40.0541 45.782 39.7294ZM34.7653 11.0419L33.1128 5.52097L34.6552 0.649526C34.7653 0.433018 34.8755 0.324763 34.9857 0.216509C35.0958 0.108254 35.3162 0 35.4263 0C35.5365 0 35.7568 0.108254 35.9772 0.216509C36.0873 0.324763 36.1975 0.433018 36.3077 0.649526L39.5025 11.0419H34.7653ZM6.23215 39.8376C5.90165 39.6211 5.79148 39.2963 5.90165 38.9716L9.42698 27.9296L1.27464 22.0839C0.944145 21.8674 0.833978 21.5426 0.944145 21.2179C1.05431 20.8931 1.38481 20.6766 1.71531 20.6766H4.79998L13.2828 26.6306L9.75749 37.889L7.22365 39.7294C6.89315 40.0541 6.56265 40.0541 6.23215 39.8376ZM13.6133 11.0419L16.8082 0.649526C16.9183 0.433018 17.0285 0.324763 17.1387 0.216509C17.2488 0.108254 17.4692 0 17.5793 0C17.7997 0 17.9098 0.108254 18.02 0.216509C18.1302 0.324763 18.2403 0.433018 18.3505 0.649526L19.8928 5.52097L18.2403 11.0419H13.6133Z" fill="url(#paint0_linear_1_2186)"/>
<defs>
<linearGradient id="paint0_linear_1_2186" x1="0.902832" y1="0" x2="52.1028" y2="40" gradientUnits="userSpaceOnUse">
<stop stop-color="#F09819"/>
<stop offset="1" stop-color="#EDDE5D"/>
</linearGradient>
</defs>
</svg>
