<svg width="33" height="11" viewBox="0 0 33 11" fill="none" xmlns="http://www.w3.org/2000/svg">
<path fill-rule="evenodd" clip-rule="evenodd" d="M8.26819 10.8325H5.4209L3.28578 2.68692C3.18444 2.31223 2.96926 1.98097 2.65275 1.82485C1.86283 1.4325 0.992406 1.12025 0.0428467 0.962772V0.649166H4.6296C5.26264 0.649166 5.73742 1.12025 5.81655 1.66737L6.92437 7.54306L9.77027 0.649166H12.5384L8.26819 10.8325ZM14.121 10.8325H11.432L13.6463 0.649166H16.3353L14.121 10.8325ZM19.8142 3.47026C19.8934 2.92179 20.3681 2.60819 20.922 2.60819C21.7925 2.52945 22.7406 2.68693 23.5319 3.07792L24.0067 0.885394C23.2154 0.571788 22.345 0.414307 21.5551 0.414307C18.9452 0.414307 17.0461 1.82485 17.0461 3.78251C17.0461 5.2718 18.3913 6.05378 19.3408 6.52486C20.3681 6.99459 20.7638 7.3082 20.6847 7.77793C20.6847 8.48252 19.8934 8.79613 19.1034 8.79613C18.1539 8.79613 17.2043 8.56126 16.3353 8.16892L15.8605 10.3628C16.8101 10.7538 17.8374 10.9113 18.7869 10.9113C21.7133 10.9887 23.5319 9.57946 23.5319 7.46432C23.5319 4.80071 19.8142 4.64459 19.8142 3.47026ZM32.9428 10.8325L30.8077 0.649166H28.5143C28.0396 0.649166 27.5648 0.962772 27.4065 1.4325L23.4528 10.8325H26.221L26.7735 9.34459H30.1747L30.4912 10.8325H32.9428ZM28.91 3.39153L29.6999 7.22947H27.4857L28.91 3.39153Z" fill="#172B85"/>
</svg>
