<svg width="39" height="10" viewBox="0 0 39 10" fill="none" xmlns="http://www.w3.org/2000/svg">
<g clip-path="url(#clip0_102_758)">
<path d="M22.547 4.99594C22.547 4.11566 22.1609 3.33789 20.8553 3.33789C20.1854 3.33789 19.6533 3.52425 19.3648 3.68736L19.5763 4.39359C19.8419 4.23093 20.2657 4.09698 20.6658 4.09698C21.3267 4.09607 21.435 4.46103 21.435 4.69568V4.75218C19.9922 4.7499 19.0801 5.23652 19.0801 6.22752C19.0801 6.83306 19.5431 7.40078 20.3526 7.40078C20.8464 7.40078 21.2637 7.20622 21.513 6.89913H21.5373C21.5373 6.89913 21.7016 7.57027 22.6104 7.31375C22.5642 7.03263 22.547 6.73646 22.547 6.37651V4.99594ZM21.4705 5.92544C21.4705 5.99651 21.4645 6.07033 21.443 6.13366C21.3599 6.40476 21.0733 6.63167 20.7166 6.63167C20.4156 6.63167 20.1794 6.46536 20.1794 6.1168C20.1794 5.58371 20.7825 5.437 21.4705 5.44064" fill="#0071CE"/>
<path d="M0.456909 2.14062C0.456909 2.14062 1.39936 5.90416 1.5492 6.5138C1.72565 7.22641 2.04167 7.48977 2.95379 7.31435L3.54288 4.98059C3.69178 4.40239 3.79307 3.98777 3.88924 3.39863H3.90556C3.97232 3.99369 4.06849 4.40239 4.19031 4.98241C4.19031 4.98241 4.43071 6.04267 4.55535 6.59809C4.67671 7.15351 5.0184 7.50389 5.91325 7.31435L7.3155 2.14062H6.18352L5.70226 4.3787C5.57482 5.02707 5.45905 5.53783 5.36896 6.13198H5.35262C5.27141 5.54421 5.16825 5.0544 5.03568 4.41925L4.53715 2.14062H3.35616L2.82401 4.36093C2.6723 5.03891 2.5304 5.58248 2.44124 6.15795H2.42584C2.33388 5.61802 2.20925 4.93047 2.07714 4.278C2.07714 4.278 1.76112 2.6883 1.64956 2.14062" fill="#0071CE"/>
<path d="M10.4701 4.99594C10.4701 4.11566 10.0831 3.33789 8.77751 3.33789C8.10954 3.33789 7.57647 3.52425 7.288 3.68736L7.49944 4.39359C7.76412 4.23093 8.18751 4.09698 8.58894 4.09698C9.24992 4.09607 9.35821 4.46103 9.35821 4.69568V4.75218C7.91536 4.7499 7.00232 5.23652 7.00232 6.22752C7.00232 6.83306 7.46725 7.40078 8.27292 7.40078C8.77144 7.40078 9.18504 7.20622 9.43431 6.89913H9.45949C9.45949 6.89913 9.62474 7.57027 10.5327 7.31375C10.486 7.03263 10.4701 6.73646 10.4701 6.37651V4.99594ZM9.39277 5.92544C9.39277 5.99651 9.3867 6.07033 9.36616 6.13366C9.28211 6.40476 8.99552 6.63167 8.63796 6.63167C8.33874 6.63167 8.10161 6.46536 8.10161 6.1168C8.10161 5.58371 8.70469 5.437 9.39277 5.44064" fill="#0071CE"/>
<path d="M11.0575 2.14062V7.31252H12.1348V6.21581V2.14062H11.0575Z" fill="#0071CE"/>
<path d="M25.8535 2.14062V5.95656C25.8535 6.48327 25.9548 6.85051 26.1728 7.0756C26.3642 7.27288 26.6774 7.40137 27.0504 7.40137C27.3706 7.40137 27.6838 7.34123 27.8318 7.28883L27.8187 6.46732C27.7081 6.49238 27.5816 6.5138 27.4079 6.5138C27.0401 6.5138 26.9187 6.28644 26.9187 5.81349V4.35273H27.857V3.36446H26.9187V2.14062" fill="#0071CE"/>
<path d="M23.0688 3.42641V7.31252H24.1826V5.32231C24.1826 5.21523 24.1896 5.12274 24.2069 5.03708C24.29 4.61744 24.6162 4.35181 25.0863 4.35181C25.2175 4.35181 25.3066 4.36593 25.4056 4.38097V3.36217C25.3225 3.34759 25.266 3.33984 25.1638 3.33984C24.747 3.33984 24.2745 3.59819 24.0752 4.1609H24.0477V3.42641" fill="#0071CE"/>
<path d="M12.7605 3.42641V7.31252H13.8458V5.03161C13.8458 4.92454 13.8579 4.81519 13.8967 4.71631C13.9849 4.48531 14.2038 4.21785 14.5553 4.21785C14.9922 4.21785 15.1985 4.5778 15.1985 5.09722V7.31252H16.281V5.00427C16.281 4.90358 16.2955 4.7801 16.3258 4.6908C16.4127 4.42881 16.6498 4.21785 16.9775 4.21785C17.4191 4.21785 17.6329 4.57005 17.6329 5.18243V7.31252H18.7144V5.02113C18.7144 3.81735 18.0871 3.33984 17.3747 3.33984C17.0615 3.33984 16.8123 3.41502 16.5882 3.54989C16.3987 3.66334 16.2325 3.82327 16.0836 4.03241H16.0673C15.8959 3.61414 15.4936 3.33984 14.9679 3.33984C14.2939 3.33984 13.9877 3.672 13.8075 3.95267H13.7912V3.42641" fill="#0071CE"/>
<path d="M33.6857 3.25276C33.8986 3.25276 34.0778 3.14432 34.1011 3.00489L34.3121 0.672048C34.3121 0.441042 34.0335 0.251953 33.6857 0.251953C33.3361 0.251953 33.0593 0.441042 33.0593 0.672048L33.2721 3.00489C33.2945 3.14432 33.4728 3.25276 33.6857 3.25276Z" fill="#FFC220"/>
<path d="M32.3912 3.98359C32.4967 3.80134 32.4906 3.59904 32.3767 3.50882L30.4068 2.16424C30.2019 2.0476 29.8952 2.18657 29.7197 2.48091C29.5447 2.77479 29.5801 3.10467 29.7809 3.21904L31.9617 4.20594C32.1013 4.25697 32.2838 4.1622 32.3912 3.98177" fill="#FFC220"/>
<path d="M34.98 3.98108C35.0915 4.16151 35.2741 4.25629 35.4099 4.20799L37.5908 3.21835C37.7934 3.10171 37.8237 2.77502 37.6524 2.48114C37.4773 2.1868 37.1688 2.04874 36.9643 2.1631L34.994 3.50631C34.8848 3.5979 34.8768 3.80111 34.9823 3.98291" fill="#FFC220"/>
<path d="M33.6857 6.16602C33.8986 6.16602 34.0778 6.27446 34.1011 6.41388L34.3121 8.74673C34.3121 8.97773 34.0335 9.165 33.6857 9.165C33.3361 9.165 33.0593 8.97773 33.0593 8.74673L33.2721 6.41388C33.2945 6.27446 33.4728 6.16602 33.6857 6.16602Z" fill="#FFC220"/>
<path d="M34.98 5.4385C35.0915 5.25761 35.2741 5.16102 35.4099 5.21341L37.5908 6.20123C37.7934 6.31559 37.8237 6.64502 37.6524 6.93935C37.4773 7.23142 37.1688 7.37038 36.9643 7.25602L34.994 5.91099C34.8848 5.82032 34.8768 5.61802 34.9823 5.4385" fill="#FFC220"/>
<path d="M32.3912 5.43655C32.4967 5.61835 32.4906 5.8202 32.3767 5.91133L30.4068 7.25408C30.2019 7.37072 29.8952 7.2313 29.7197 6.93924C29.5447 6.64535 29.5801 6.31547 29.7809 6.20111L31.9617 5.21329C32.1013 5.16135 32.2838 5.25704 32.3912 5.43655Z" fill="#FFC220"/>
<path d="M38.2289 7.05228H38.256C38.2929 7.05228 38.3078 7.06367 38.3121 7.09238C38.32 7.12427 38.3242 7.14569 38.3321 7.1548H38.4021C38.3961 7.14797 38.3881 7.13065 38.3839 7.09056C38.376 7.05593 38.3578 7.03634 38.3321 7.0295V7.02312C38.3676 7.01538 38.3881 6.99214 38.3881 6.96343C38.3881 6.93746 38.376 6.91878 38.3638 6.90694C38.3405 6.896 38.3181 6.88734 38.2686 6.88734C38.2248 6.88734 38.1925 6.89099 38.1669 6.89691V7.1548H38.2289V7.05228ZM38.2308 6.93473L38.2626 6.93063C38.2999 6.93063 38.32 6.94749 38.32 6.97118C38.32 6.99761 38.2929 7.00991 38.2584 7.00991H38.2308V6.93473ZM38.2705 6.75977C38.1174 6.75977 37.996 6.87641 37.996 7.01948C37.996 7.16619 38.1174 7.28283 38.2705 7.28283C38.4255 7.28283 38.5431 7.16619 38.5431 7.01948C38.5431 6.87641 38.4255 6.75977 38.2705 6.75977ZM38.2705 6.81216C38.3881 6.81216 38.4754 6.90511 38.4754 7.01948C38.4754 7.13475 38.3881 7.23044 38.2705 7.22861C38.1529 7.22861 38.0637 7.13475 38.0637 7.01948C38.0637 6.90511 38.1529 6.81216 38.2686 6.81216" fill="#FFC220"/>
</g>
<defs>
<clipPath id="clip0_102_758">
<rect width="38.0862" height="8.91379" fill="white" transform="translate(0.456909 0.251953)"/>
</clipPath>
</defs>
</svg>
